<svg width="97" height="77" viewBox="0 0 97 77" fill="none" xmlns="http://www.w3.org/2000/svg">
<path d="M31.0682 39V17.1818H34.4205V39H31.0682ZM32.7727 13.5455C32.1193 13.5455 31.5559 13.3229 31.0824 12.8778C30.6184 12.4328 30.3864 11.8977 30.3864 11.2727C30.3864 10.6477 30.6184 10.1127 31.0824 9.66761C31.5559 9.22254 32.1193 9 32.7727 9C33.4261 9 33.9848 9.22254 34.4489 9.66761C34.9223 10.1127 35.1591 10.6477 35.1591 11.2727C35.1591 11.8977 34.9223 12.4328 34.4489 12.8778C33.9848 13.3229 33.4261 13.5455 32.7727 13.5455ZM43.0604 17.1818L48.2876 26.1023L53.5149 17.1818H57.3786L50.3331 28.0909L57.3786 39H53.5149L48.2876 30.5341L43.0604 39H39.1967L46.1286 28.0909L39.1967 17.1818H43.0604Z" fill="black"/>
<path d="M19.0682 68V46.1818H22.3068V49.5909H22.5909C23.0455 48.4261 23.7794 47.5218 24.7926 46.8778C25.8059 46.2244 27.0227 45.8977 28.4432 45.8977C29.8826 45.8977 31.0805 46.2244 32.0369 46.8778C33.0028 47.5218 33.7557 48.4261 34.2955 49.5909H34.5227C35.0814 48.464 35.9195 47.5691 37.0369 46.9062C38.1544 46.2339 39.4943 45.8977 41.0568 45.8977C43.0076 45.8977 44.6032 46.5085 45.8438 47.7301C47.0843 48.9422 47.7045 50.8314 47.7045 53.3977V68H44.3523V53.3977C44.3523 51.7879 43.9119 50.6373 43.0312 49.946C42.1506 49.2547 41.1136 48.9091 39.9205 48.9091C38.3864 48.9091 37.1979 49.3731 36.3551 50.3011C35.5123 51.2197 35.0909 52.3845 35.0909 53.7955V68H31.6818V53.0568C31.6818 51.8163 31.2794 50.8172 30.4744 50.0597C29.6695 49.2926 28.6326 48.9091 27.3636 48.9091C26.4924 48.9091 25.678 49.1411 24.9205 49.6051C24.1723 50.0691 23.5663 50.7131 23.1023 51.5369C22.6477 52.3513 22.4205 53.2936 22.4205 54.3636V68H19.0682ZM62.6974 68.4545C60.7277 68.4545 58.9995 67.9858 57.5128 67.0483C56.0355 66.1108 54.8802 64.7992 54.0469 63.1136C53.223 61.428 52.8111 59.4583 52.8111 57.2045C52.8111 54.9318 53.223 52.9479 54.0469 51.2528C54.8802 49.5578 56.0355 48.2415 57.5128 47.304C58.9995 46.3665 60.7277 45.8977 62.6974 45.8977C64.6671 45.8977 66.3906 46.3665 67.8679 47.304C69.3546 48.2415 70.5099 49.5578 71.3338 51.2528C72.1671 52.9479 72.5838 54.9318 72.5838 57.2045C72.5838 59.4583 72.1671 61.428 71.3338 63.1136C70.5099 64.7992 69.3546 66.1108 67.8679 67.0483C66.3906 67.9858 64.6671 68.4545 62.6974 68.4545ZM62.6974 65.4432C64.1937 65.4432 65.4247 65.0597 66.3906 64.2926C67.3565 63.5256 68.0715 62.517 68.5355 61.267C68.9995 60.017 69.2315 58.6629 69.2315 57.2045C69.2315 55.7462 68.9995 54.3873 68.5355 53.1278C68.0715 51.8684 67.3565 50.8504 66.3906 50.0739C65.4247 49.2973 64.1937 48.9091 62.6974 48.9091C61.2012 48.9091 59.9702 49.2973 59.0043 50.0739C58.0384 50.8504 57.3234 51.8684 56.8594 53.1278C56.3954 54.3873 56.1634 55.7462 56.1634 57.2045C56.1634 58.6629 56.3954 60.017 56.8594 61.267C57.3234 62.517 58.0384 63.5256 59.0043 64.2926C59.9702 65.0597 61.2012 65.4432 62.6974 65.4432ZM94.7607 46.1818L86.6925 68H83.2834L75.2152 46.1818H78.8516L84.8743 63.5682H85.1016L91.1243 46.1818H94.7607Z" fill="black"/>
<rect x="19" y="4" width="4" height="72" fill="black"/>
<rect y="4" width="4" height="72" transform="rotate(-90 0 4)" fill="black"/>
</svg>
